<svg xmlns="http://www.w3.org/2000/svg" version="1.1" xmlns:xlink="http://www.w3.org/1999/xlink" xmlns:svgjs="http://svgjs.com/svgjs" width="132" height="147"><svg width="132" height="147" viewBox="0 0 132 147" fill="none" xmlns="http://www.w3.org/2000/svg">
<path d="M115.708 124.597C59.69 148.722 24.9243 128.537 2.66973 116.277C1.29262 115.504 -1.04798 116.458 0.982814 118.568C8.39694 126.703 32.6946 146.311 64.4101 146.311C96.1474 146.311 115.028 130.64 117.39 127.907C119.736 125.196 118.079 123.701 115.708 124.597ZM131.441 116.734C129.937 114.962 122.294 114.631 117.484 115.166C112.666 115.685 105.435 118.349 106.064 119.949C106.387 120.548 107.045 120.28 110.354 120.01C113.673 119.711 122.969 118.649 124.906 120.94C126.853 123.248 121.941 134.239 121.044 136.012C120.178 137.785 121.376 138.242 123.003 137.061C124.609 135.881 127.515 132.824 129.466 128.499C131.403 124.15 132.585 118.084 131.441 116.734Z" fill="#F59E0B"></path>
<path d="M94.5641 18.7037C91.5351 12.8787 86.8751 8.45173 80.1181 5.42273C73.8271 2.39372 66.6041 0.995728 58.6821 0.995728C50.9931 0.995728 43.7701 2.39372 37.2461 5.18973C30.7221 7.98573 25.1301 11.9467 20.4701 17.0727C15.5771 22.4317 12.0821 28.4897 9.51911 35.2467C6.95611 42.4697 5.55811 49.9257 5.55811 57.8477C5.55811 66.0027 6.72311 73.4587 9.28611 80.2157C11.8491 87.4387 15.5771 93.4967 20.0041 98.3897C24.4311 103.283 30.0231 107.477 36.7801 110.506C43.0711 113.535 50.2941 114.933 57.9831 114.933C65.4391 114.933 72.4291 113.302 78.9531 110.04C85.4771 106.778 90.1371 102.584 92.9331 97.4577C94.0981 108.409 98.0591 114.001 104.816 114.001C108.777 114.001 111.573 112.836 112.971 110.506C114.369 108.176 115.068 104.681 115.068 100.021V14.5097C115.068 6.35473 111.34 2.39372 104.117 2.39372C100.156 2.39372 97.3601 4.02473 95.9621 7.28673C94.3311 10.7817 93.6321 14.2767 93.3991 18.2377L94.5641 18.7037ZM60.0801 23.1307C64.5071 23.1307 68.9341 24.0627 72.8951 25.9267C76.8561 27.7907 80.3511 30.3537 83.1471 33.3827C86.1761 36.4117 88.2731 40.1397 89.9041 44.3337C91.5351 48.2947 92.2341 52.7217 92.2341 57.6147C92.2341 62.2747 91.3021 66.7017 89.6711 71.1287C88.0401 75.3227 85.9431 79.0507 82.9141 82.0797C80.1181 85.1087 76.6231 87.6717 72.6621 89.5357C68.7011 91.3997 64.2741 92.3317 59.6141 92.3317C54.7211 92.3317 50.5271 91.3997 46.5661 89.5357C42.3721 87.4387 38.8771 85.1087 36.3141 82.3127C33.2851 79.2837 31.1881 75.5557 29.5571 71.3617C27.9261 66.9347 26.9941 62.5077 26.9941 57.8477C26.9941 52.9547 27.6931 48.5277 29.3241 44.5667C30.9551 40.3727 33.0521 36.6447 36.0811 33.6157C38.8771 30.5867 42.3721 28.0237 46.3331 26.1597C50.2941 24.2957 54.459 23.1307 59.119 23.1307H60.0801Z" fill="#1E293B"></path>
</svg><style>@media (prefers-color-scheme: light) { :root { filter: none; } }
@media (prefers-color-scheme: dark) { :root { filter: contrast(0.425531914893617) brightness(4); } }
</style></svg>