<svg width="31" height="30" viewBox="0 0 31 30" fill="none" xmlns="http://www.w3.org/2000/svg">
<path d="M17.0468 2.73223C16.0705 1.75592 14.4876 1.75592 13.5113 2.73223L3.01129 13.2322C2.03497 14.2085 2.03497 15.7915 3.01129 16.7678C3.6273 17.3838 4.4848 17.6111 5.27905 17.4498V25.5C5.27905 26.8807 6.39834 28 7.77905 28H10.7791C12.1598 28 13.2791 26.8807 13.2791 25.5V22.5C13.2791 22.2239 13.5029 22 13.7791 22H16.7791C17.0552 22 17.2791 22.2239 17.2791 22.5V25.5C17.2791 26.8807 18.3983 28 19.7791 28H22.7791C24.1598 28 25.2791 26.8807 25.2791 25.5V17.4498C26.0733 17.6111 26.9308 17.3838 27.5468 16.7678C28.5231 15.7915 28.5231 14.2085 27.5468 13.2322L17.0468 2.73223Z" stroke="#1F2937" stroke-width="2"/>
</svg>
