<?xml version="1.0" standalone="no"?>
<!DOCTYPE svg PUBLIC "-//W3C//DTD SVG 20010904//EN"
 "http://www.w3.org/TR/2001/REC-SVG-20010904/DTD/svg10.dtd">
<svg version="1.0" xmlns="http://www.w3.org/2000/svg"
 width="588.000000pt" height="588.000000pt" viewBox="0 0 588.000000 588.000000"
 preserveAspectRatio="xMidYMid meet">
<metadata>
Created by potrace 1.14, written by Peter Selinger 2001-2017
</metadata>
<g transform="translate(0.000000,588.000000) scale(0.100000,-0.100000)"
fill="#000000" stroke="none">
<path d="M2688 5845 c-2 -2 -67 -7 -144 -9 -76 -3 -149 -7 -161 -10 -12 -3
-46 -7 -75 -11 -58 -6 -55 -6 -143 -24 -316 -66 -634 -222 -880 -431 -74 -63
-197 -194 -277 -295 -107 -133 -244 -379 -312 -556 -49 -129 -112 -349 -122
-432 -2 -16 -6 -32 -8 -36 -3 -4 -8 -30 -11 -58 -3 -27 -8 -60 -10 -73 -25
-131 -26 -573 -1 -710 3 -14 8 -45 11 -70 7 -65 16 -113 36 -190 6 -25 12 -54
15 -65 2 -11 13 -49 24 -85 134 -419 343 -751 631 -1002 93 -81 101 -88 189
-146 47 -31 87 -60 88 -64 2 -5 8 -8 14 -8 5 0 23 -9 39 -21 16 -11 29 -17 29
-14 0 3 12 -2 28 -13 38 -26 257 -122 312 -137 3 -1 12 -5 20 -8 20 -8 157
-45 195 -52 17 -3 46 -8 65 -11 19 -3 46 -7 60 -10 91 -18 387 -24 520 -11 68
7 149 20 173 28 1 0 11 2 22 4 190 27 504 166 686 302 98 73 268 250 269 280
1 17 50 68 51 53 1 -19 9 -81 13 -100 1 -8 6 -33 10 -55 16 -83 71 -230 109
-289 86 -136 193 -195 353 -193 126 1 224 35 284 99 54 59 95 184 106 330 9
116 9 3608 0 3663 -41 256 -189 376 -454 368 -205 -7 -321 -138 -378 -423 -2
-14 -9 -49 -15 -77 -6 -29 -7 -58 -3 -65 4 -7 -2 -4 -14 6 -12 11 -22 25 -22
32 0 7 -3 14 -7 16 -5 2 -24 23 -44 48 -54 68 -134 145 -206 200 -35 28 -137
88 -195 117 -66 33 -226 103 -231 102 -1 -1 -33 8 -72 19 -38 12 -85 24 -104
27 -19 3 -37 8 -40 10 -4 2 -27 6 -51 10 -45 6 -83 12 -131 20 -15 3 -70 7
-123 10 -53 2 -100 7 -105 9 -4 3 -10 3 -13 1z m168 -900 c21 -3 55 -9 74 -11
129 -17 325 -99 468 -196 93 -63 116 -82 215 -183 114 -115 196 -239 256 -385
12 -30 26 -64 31 -75 17 -35 39 -105 34 -105 -2 0 0 -8 5 -19 6 -10 13 -33 16
-52 3 -19 8 -41 10 -49 31 -111 25 -485 -9 -598 -3 -9 -7 -28 -10 -42 -9 -50
-69 -225 -99 -289 -32 -68 -96 -182 -106 -191 -4 -3 -15 -18 -25 -34 -40 -63
-203 -228 -271 -274 -22 -15 -42 -29 -45 -32 -30 -31 -265 -150 -300 -153 -11
-1 -20 -4 -20 -8 0 -5 -55 -20 -128 -34 -13 -2 -31 -6 -40 -9 -55 -17 -325
-24 -392 -11 -13 3 -42 7 -63 10 -164 25 -335 103 -563 256 -55 37 -174 156
-225 226 -24 32 -46 60 -49 63 -3 3 -12 19 -20 35 -8 17 -18 32 -21 35 -3 3
-24 44 -47 91 -50 107 -97 243 -116 339 -3 14 -8 36 -11 50 -11 48 -26 191
-27 255 0 24 13 222 16 245 18 116 41 199 89 320 22 58 44 107 47 110 3 3 14
23 25 45 61 124 214 303 340 399 33 25 65 50 72 56 7 5 15 10 17 10 3 0 29 15
58 33 48 30 75 44 163 83 127 55 212 77 350 91 33 3 61 6 62 7 6 5 203 -3 239
-9z"/>
<path d="M5075 1282 c-2 -2 -26 -6 -53 -8 -42 -3 -177 -28 -207 -37 -5 -2 -34
-11 -63 -20 -29 -9 -58 -20 -65 -24 -6 -4 -14 -8 -17 -8 -3 0 -30 -14 -61 -32
-55 -31 -75 -55 -63 -75 6 -10 87 -7 249 9 125 12 376 9 427 -6 71 -20 91 -47
89 -122 -1 -33 -3 -64 -6 -68 -2 -4 -6 -18 -8 -32 -14 -74 -81 -261 -141 -391
-14 -31 -26 -63 -26 -72 0 -22 35 -29 68 -12 28 15 121 105 165 161 130 166
218 434 209 632 -2 28 -8 35 -54 57 -51 24 -85 31 -196 42 -63 6 -242 10 -247
6z"/>
<path d="M328 1230 c-40 -24 -22 -59 85 -165 56 -56 140 -133 187 -171 47 -38
87 -71 90 -75 8 -9 190 -138 221 -156 16 -10 29 -21 29 -25 0 -4 4 -8 9 -8 6
0 54 -28 108 -61 121 -76 326 -184 453 -239 52 -22 104 -44 115 -49 60 -26
199 -77 235 -86 3 -1 12 -4 20 -7 32 -13 156 -48 220 -64 60 -14 256 -53 296
-59 27 -3 58 -8 69 -10 20 -4 105 -13 195 -20 56 -5 388 -5 455 -1 106 7 231
21 281 30 12 2 45 7 74 11 29 4 62 9 74 12 12 2 50 11 86 18 36 7 117 27 180
45 63 17 122 32 130 34 8 3 15 5 15 6 0 1 8 3 17 5 67 13 353 132 498 208 106
55 228 125 240 137 3 3 37 26 76 52 112 75 200 154 237 212 23 35 16 95 -11
97 -37 3 -75 0 -91 -7 -9 -4 -18 -8 -21 -9 -3 0 -20 -9 -37 -18 -18 -10 -36
-18 -40 -18 -9 -2 -14 -3 -143 -54 -166 -65 -589 -199 -694 -219 -12 -2 -43
-10 -71 -16 -27 -6 -61 -14 -75 -16 -14 -2 -36 -7 -50 -9 -14 -3 -38 -8 -55
-11 -16 -3 -48 -9 -70 -14 -22 -5 -62 -12 -90 -15 -27 -3 -60 -8 -71 -10 -12
-3 -48 -7 -80 -10 -33 -3 -75 -8 -94 -10 -294 -37 -828 -17 -1100 40 -14 3
-41 8 -60 11 -66 11 -75 12 -160 33 -47 12 -93 23 -102 26 -97 23 -352 102
-403 124 -11 5 -63 26 -115 46 -158 61 -295 123 -515 235 -202 102 -248 127
-398 211 -74 42 -123 55 -149 39z"/>
</g>
</svg>
