<svg width="82" height="27" viewBox="0 0 82 27" fill="none" xmlns="http://www.w3.org/2000/svg">
<path d="M9.83427 2.18558C9.4996 1.54197 8.98471 1.05284 8.23813 0.718161C7.54304 0.383487 6.74497 0.229022 5.86967 0.229022C5.02011 0.229022 4.22204 0.383487 3.50121 0.692417C2.78037 1.00135 2.16251 1.439 1.64763 2.00537C1.107 2.59749 0.720837 3.26683 0.437651 4.01342C0.154465 4.81148 0 5.6353 0 6.5106C0 7.41165 0.128721 8.23546 0.411907 8.98204C0.695093 9.78011 1.107 10.4495 1.59614 10.9901C2.08528 11.5307 2.70314 11.9941 3.44972 12.3288C4.14481 12.6635 4.94288 12.8179 5.79244 12.8179C6.61625 12.8179 7.38858 12.6377 8.10941 12.2773C8.83025 11.9169 9.34513 11.4535 9.65406 10.8871C9.78278 12.0971 10.2204 12.7149 10.967 12.7149C11.4047 12.7149 11.7136 12.5862 11.8681 12.3288C12.0225 12.0713 12.0998 11.6852 12.0998 11.1703V1.72218C12.0998 0.821138 11.6879 0.383487 10.8898 0.383487C10.4521 0.383487 10.1432 0.563697 9.98874 0.924115C9.80853 1.31028 9.7313 1.69644 9.70555 2.13409L9.83427 2.18558ZM6.02414 2.67472C6.51328 2.67472 7.00241 2.7777 7.44007 2.98365C7.87772 3.1896 8.26388 3.47279 8.57281 3.80746C8.90748 4.14214 9.13918 4.55404 9.31939 5.01744C9.4996 5.45509 9.57683 5.94423 9.57683 6.48486C9.57683 6.99974 9.47385 7.48888 9.29364 7.97802C9.11344 8.44141 8.88174 8.85332 8.54706 9.18799C8.23813 9.52267 7.85197 9.80585 7.41432 10.0118C6.97667 10.2178 6.48753 10.3207 5.97265 10.3207C5.43202 10.3207 4.96862 10.2178 4.53097 10.0118C4.06758 9.78011 3.68142 9.52267 3.39823 9.21374C3.06356 8.87906 2.83186 8.46716 2.65165 8.00376C2.47144 7.51462 2.36846 7.02548 2.36846 6.5106C2.36846 5.96997 2.4457 5.48083 2.62591 5.04318C2.80611 4.57979 3.03781 4.16788 3.37249 3.83321C3.68142 3.49853 4.06758 3.21535 4.50523 3.00939C4.94288 2.80344 5.40555 2.67472 5.92043 2.67472H6.02414Z" fill="#1E293B"/>
<path d="M15.2961 0.563697C14.8584 0.563697 14.5495 0.692417 14.395 0.949859C14.2405 1.2073 14.1633 1.51623 14.1633 1.90239V11.505C14.1633 12.3288 14.5752 12.7407 15.399 12.7407C15.7852 12.7407 16.0941 12.6377 16.3001 12.4318C16.506 12.2258 16.609 11.9169 16.609 11.5307V5.45509C16.609 4.65702 16.815 4.01342 17.2526 3.52428C17.6903 3.03514 18.2566 2.80344 18.9775 2.80344C19.6726 2.80344 20.2389 3.03514 20.6766 3.49853C21.1142 3.93618 21.3202 4.57979 21.3202 5.42934V11.505C21.3202 12.3288 21.7321 12.7407 22.5559 12.7407C23.4055 12.7407 23.8174 12.3288 23.8174 11.505V5.42934C23.8174 4.63128 24.0233 3.98767 24.461 3.49853C24.8986 3.00939 25.465 2.7777 26.1601 2.7777C26.8552 2.7777 27.4473 3.00939 27.885 3.47279C28.3226 3.91044 28.5286 4.55404 28.5286 5.4036V11.4792C28.5286 12.303 28.9405 12.7149 29.7643 12.7149C30.6138 12.7149 31.0515 12.303 31.0515 11.4792V5.66104C31.0515 3.88469 30.6396 2.546 29.79 1.64495C28.9405 0.743906 27.8077 0.280511 26.3918 0.280511C25.5937 0.280511 24.9244 0.46072 24.3323 0.821138C23.7401 1.18156 23.2768 1.61921 22.9421 2.13409C22.6331 1.56772 22.1955 1.13007 21.6034 0.795394C21.0113 0.46072 20.3419 0.306254 19.5696 0.306254C18.1537 0.306254 17.0981 0.846882 16.4545 1.90239C16.3773 1.41325 16.2228 1.07858 16.0426 0.872627C15.8367 0.666673 15.5535 0.563697 15.1931 0.563697H15.2961Z" fill="#1E293B"/>
<path d="M42.5173 2.18558C42.1826 1.54197 41.6677 1.05284 40.9212 0.718161C40.2261 0.383487 39.428 0.229022 38.5527 0.229022C37.7031 0.229022 36.9051 0.383487 36.1842 0.692417C35.4634 1.00135 34.8455 1.439 34.3307 2.00537C33.79 2.59749 33.4039 3.26683 33.1207 4.01342C32.8375 4.81148 32.683 5.6353 32.683 6.5106C32.683 7.41165 32.8117 8.23546 33.0949 8.98204C33.3781 9.78011 33.79 10.4495 34.2792 10.9901C34.7683 11.5307 35.3862 11.9941 36.1327 12.3288C36.8278 12.6635 37.6259 12.8179 38.4755 12.8179C39.2993 12.8179 40.0716 12.6377 40.7924 12.2773C41.5133 11.9169 42.0282 11.4535 42.3371 10.8871C42.4658 12.0971 42.9035 12.7149 43.65 12.7149C44.0877 12.7149 44.3966 12.5862 44.5511 12.3288C44.7056 12.0713 44.7828 11.6852 44.7828 11.1703V1.72218C44.7828 0.821138 44.3709 0.383487 43.5728 0.383487C43.1352 0.383487 42.8262 0.563697 42.6718 0.924115C42.4916 1.31028 42.4143 1.69644 42.3886 2.13409L42.5173 2.18558ZM38.7072 2.67472C39.1963 2.67472 39.6854 2.7777 40.1231 2.98365C40.5607 3.1896 40.9469 3.47279 41.2558 3.80746C41.5905 4.14214 41.8222 4.55404 42.0024 5.01744C42.1826 5.45509 42.2599 5.94423 42.2599 6.48486C42.2599 6.99974 42.1569 7.48888 41.9767 7.97802C41.7965 8.44141 41.5648 8.85332 41.2301 9.18799C40.9212 9.52267 40.535 9.80585 40.0973 10.0118C39.6597 10.2178 39.1706 10.3207 38.6557 10.3207C38.115 10.3207 37.6517 10.2178 37.214 10.0118C36.7506 9.78011 36.3644 9.52267 36.0813 9.21374C35.7466 8.87906 35.5149 8.46716 35.3347 8.00376C35.1545 7.51462 35.0515 7.02548 35.0515 6.5106C35.0515 5.96997 35.1287 5.48083 35.3089 5.04318C35.4891 4.57979 35.7208 4.16788 36.0555 3.83321C36.3644 3.49853 36.7506 3.21535 37.1883 3.00939C37.6259 2.80344 38.0835 2.67472 38.5984 2.67472H38.7072Z" fill="#1E293B"/>
<path d="M54.0844 0.640929L48.2108 0.615184C47.2582 0.615184 46.7691 1.02709 46.7691 1.8509C46.7691 2.64897 47.2582 3.03514 48.2108 3.03514H51.9179L47.0008 10.295C46.7949 10.6039 46.6919 10.9386 46.6919 11.2733C46.6919 11.6594 46.7448 12.0111 47.078 12.2258C47.2349 12.3269 47.5809 12.2194 47.9788 12.195C47.9788 12.195 50.081 11.8972 51.3693 11.8979C52.6523 11.8985 54.6468 12.6279 54.6468 12.6279C55.2878 13.061 56.0628 12.2258 56.0628 11.4277C56.0628 10.5782 55.5994 10.1663 54.6468 10.1663H49.9356L55.0587 2.75195C55.2389 2.46877 55.3419 2.15983 55.3419 1.8509C55.3419 1.51623 55.2389 1.23304 55.033 1.00135C54.827 0.76965 54.5181 0.640929 54.1319 0.640929H54.0844Z" fill="#1E293B"/>
<path d="M62.925 2.72621C63.4656 2.72621 63.9547 2.82918 64.4181 3.03514C64.9073 3.24109 65.2934 3.52428 65.6281 3.88469C65.9628 4.27086 66.246 4.68276 66.4519 5.12041C66.6579 5.58381 66.7609 6.07295 66.7609 6.58783C66.7609 7.10272 66.6579 7.59185 66.4519 8.05525C66.246 8.4929 65.9628 8.90481 65.6281 9.29097C65.2934 9.65139 64.9073 9.93457 64.4181 10.1405C63.9547 10.3465 63.4656 10.4495 62.925 10.4495C62.3844 10.4495 61.8952 10.3465 61.4318 10.1405C60.9427 9.93457 60.5565 9.65139 60.2218 9.29097C59.8872 8.90481 59.604 8.4929 59.398 8.05525C59.1921 7.59185 59.0891 7.10272 59.0891 6.58783C59.0891 6.07295 59.1921 5.58381 59.398 5.12041C59.604 4.63127 59.8614 4.21937 60.1961 3.88469C60.5308 3.52428 60.9427 3.24109 61.3803 3.03514C61.8437 2.82918 62.3329 2.72621 62.8735 2.72621H62.925ZM69.2066 6.53634C69.2066 5.66104 69.0264 4.83723 68.6917 4.03916C68.357 3.29258 67.9194 2.62323 67.3272 2.03111C66.7866 1.49049 66.1173 1.02709 65.3192 0.692417C64.5726 0.357743 63.7488 0.203278 62.8477 0.203278C61.9467 0.203278 61.1229 0.357743 60.3763 0.692417C59.5782 1.02709 58.9089 1.49049 58.3683 2.03111C57.8276 2.57174 57.3642 3.24109 57.0296 4.03916C56.6949 4.78574 56.5404 5.6353 56.5404 6.53634C56.5404 7.43739 56.6949 8.2612 57.0296 9.00778C57.3642 9.80585 57.8276 10.4752 58.3683 11.0158C58.9604 11.6079 59.6297 12.0456 60.3763 12.3803C61.1229 12.7149 61.9467 12.8694 62.8477 12.8694C63.7488 12.8694 64.5726 12.7149 65.3192 12.3803C66.1173 12.0456 66.7866 11.5822 67.3272 11.0416C67.9194 10.4495 68.357 9.78011 68.6917 9.03353C69.0264 8.28695 69.1808 7.46313 69.1808 6.56209L69.2066 6.53634Z" fill="#1E293B"/>
<path d="M72.1142 0.563697C71.7281 0.563697 71.4449 0.692417 71.2647 0.924115C71.0845 1.15581 70.9815 1.46474 70.9815 1.8509V11.402C70.9815 12.2773 71.3934 12.7149 72.1915 12.7149C72.7321 12.7149 73.0925 12.5605 73.247 12.2258C73.4015 11.8911 73.4787 11.4277 73.4787 10.8356V6.12444C73.4787 4.99169 73.7361 4.11639 74.251 3.49853C74.7659 2.88067 75.5125 2.57174 76.465 2.57174C77.3918 2.57174 78.1384 2.85493 78.7048 3.4213C79.2711 3.98767 79.5543 4.81148 79.5543 5.91848V11.3505C79.5543 12.2515 79.9662 12.6892 80.79 12.6892C81.3307 12.6892 81.6653 12.509 81.794 12.1743C81.9228 11.8139 82 11.3505 82 10.7841V5.84125C82 4.91446 81.8713 4.09065 81.6138 3.39555C81.3564 2.70046 80.996 2.13409 80.5583 1.64495C80.1207 1.15581 79.6058 0.821138 79.0137 0.589441C78.3958 0.357743 77.7522 0.229022 77.0829 0.229022C76.2076 0.229022 75.4352 0.409231 74.7916 0.795394C74.1223 1.18156 73.6589 1.64495 73.4015 2.13409C73.3757 1.59346 73.2727 1.2073 73.0925 0.949859C72.9123 0.692417 72.6034 0.563697 72.1657 0.563697H72.1142Z" fill="#1E293B"/>
<path fill-rule="evenodd" clip-rule="evenodd" d="M49.5125 18.6814C44.3578 23.5293 36.8864 26.1158 30.4536 26.1158C21.4338 26.1158 13.3137 21.8591 7.17046 14.7795C6.68781 14.2227 7.12027 13.464 7.69945 13.8976C14.3292 18.8194 22.5265 21.7803 30.9942 21.7803C36.7049 21.7803 42.9871 20.2727 48.7635 17.1443C49.6361 16.6713 50.3659 17.8734 49.5125 18.6814" fill="#F59E0B"/>
<path fill-rule="evenodd" clip-rule="evenodd" d="M51.6555 15.553C50.9991 14.4789 47.3001 15.0455 45.6397 15.2968C45.1339 15.3756 45.0567 14.8139 45.5123 14.4099C48.4584 11.7643 53.2927 12.5279 53.8564 13.4148C54.4201 14.3065 53.7097 20.4895 50.9412 23.4406C50.5164 23.8939 50.111 23.6525 50.3002 23.0514C50.9219 21.0709 52.3158 16.6319 51.6555 15.553" fill="#F59E0B"/>
</svg>
